<?xml version="1.0" encoding="utf-8"?>
<!-- Generator: Adobe Illustrator 24.0.1, SVG Export Plug-In . SVG Version: 6.00 Build 0)  -->
<svg version="1.1" id="Ebene_1" xmlns="http://www.w3.org/2000/svg" xmlns:xlink="http://www.w3.org/1999/xlink" x="0px" y="0px"
	 viewBox="0 0 30 57" style="enable-background:new 0 0 30 57;" xml:space="preserve">
<style type="text/css">
	.st0{fill:#FFFFFF;}
</style>
<path class="st0" d="M3.5,11.3c0-4.3,3.6-7.8,7.9-7.8c4.4,0,7.9,3.4,7.9,7.8c0,1.5-0.4,2.9-1.2,4.1c3.1,1.6,3.1,1.6,3.1,1.6
	c1-1.7,1.6-3.6,1.6-5.7C23,5,17.8,0,11.4,0C5.1,0,0,5,0,11.3c0,2.1,0.6,4,1.6,5.7c3.1-1.6,3.1-1.6,3.1-1.6C4,14.1,3.5,12.8,3.5,11.3
	z M30,29.4c0,12,0,12,0,12C26.5,50,26.5,50,26.5,50c0,7,0,7,0,7c-15.9,0-15.9,0-15.9,0c0-3.5,0-3.5,0-3.5c-7-10.3-7-10.3-7-10.3
	c-0.1,0-0.1,0-0.1,0c0-0.2,0-0.2,0-0.2c0-10.2,0-10.2,0-10.2c0-2.6,0-2.6,0-2.6c0-1.5,1.3-2.6,2.7-2.6c1.5,0,2.7,1.1,2.7,2.6
	c0-19,0-19,0-19c0-1.4,1.3-2.6,2.7-2.6c1.5,0,2.6,1.1,2.6,2.6c0,10.4,0,10.4,0,10.4c0-1.5,1.3-2.6,2.6-2.6c1.5,0,2.6,1.1,2.6,2.6
	c0,1.7,0,1.7,0,1.7c0-1.4,1.3-2.6,2.6-2.6c1.5,0,2.6,1.2,2.6,2.6c0,3.5,0,3.5,0,3.5c0-1.5,1.3-2.6,2.6-2.6c1.5,0,2.6,1.1,2.6,2.6
	C30,29.4,30,29.4,30,29.4z"/>
</svg>
