<svg id="Ebene_1" data-name="Ebene 1" xmlns="http://www.w3.org/2000/svg" width="31.88" height="32.01" viewBox="0 0 31.88 32.01">
  <defs>
    <style>
      .cls-1 {
        fill: #fff;
      }
    </style>
  </defs>
  <path class="cls-1" d="M12.62,32a12.61,12.61,0,1,1,12.6-12.62h0A12.63,12.63,0,0,1,12.62,32Zm0-22.21a9.61,9.61,0,1,0,9.6,9.62h0a9.62,9.62,0,0,0-9.6-9.63Z" transform="translate(0 0)"/>
  <path class="cls-1" d="M19.26,25.22A12.61,12.61,0,1,1,31.88,12.61,12.62,12.62,0,0,1,19.26,25.22ZM19.26,3a9.61,9.61,0,1,0,9.62,9.6A9.61,9.61,0,0,0,19.26,3Z" transform="translate(0 0)"/>
  <path class="cls-1" d="M16.29,6,12.64,9.68l-5.5,5.91,1.59,1.59,5.91-5.5L18.29,8l5.49-5.9L22.19.54Z" transform="translate(0 0)"/>
  <path class="cls-1" d="M20.33,9.46l-3.65,3.65L11.19,19l1.59,1.59,5.9-5.49,3.65-3.66,5.55-5.9L26.24,4Z" transform="translate(0 0)"/>
  <path class="cls-1" d="M23.88,13.36,20.23,17l-5.49,5.91,1.59,1.59,5.9-5.5,3.65-3.65,5.49-5.9L29.79,7.87Z" transform="translate(0 0)"/>
</svg>
