<svg id="Layer_2" data-name="Layer 2" xmlns="http://www.w3.org/2000/svg" viewBox="0 0 983.75 983.62"><defs><style>.cls-1{fill:#fff;}</style></defs><path class="cls-1" d="M512,1003.64c-107.65,0-215.31.75-322.94-.28-68.86-.66-120.34-32.14-152-94C25.38,886.44,20.41,861.6,20.4,836q-.18-323.94.09-647.88C20.7,93,94.06,20.52,189,20.43q322.94-.3,645.89,0c94.6.09,168.2,71.93,168.52,166.58q1.1,324.95,0,649.89c-.31,94.64-73.82,166.45-168.44,166.68C727.33,1003.84,619.69,1003.64,512,1003.64Zm89-225.52v0h78c40,0,80,.13,120-.09a40.7,40.7,0,0,0,38-26c6-15.48,2-31.28-10.93-43.66-9.45-9.06-20.73-12.31-33.71-12.29q-182.44.24-364.88.1c-7.66,0-15.34-.23-23,.14-18.51.9-33.5,12.76-38.26,29.9-7.64,27.51,10.13,51.69,38.91,51.83C470.36,778.33,535.67,778.12,601,778.12Zm0-532.25c-65.31,0-130.62-.19-195.93.09-28.52.12-46,23.41-39.07,50.87,5,19.68,21.05,31,44.48,31q191.43.06,382.87,0c2.33,0,4.67.05,7-.15,26-2.32,44.73-28.76,37.59-52.93-5.14-17.41-21.07-28.84-41-28.87Q698.93,245.74,601,245.87Zm1,225.26q-94.49,0-189,0a102,102,0,0,0-15,.76c-21.18,3.17-36.69,25.14-32.89,46.23,4,22,19.86,34.67,44.28,34.69q136.47.12,273,0c38.32,0,76.65.22,115-.11,20.39-.18,37.78-15.24,41.77-35,3.22-16-8.15-35.87-25.77-43.07-6.25-2.55-13.59-3.35-20.44-3.38C729.25,471,665.59,471.13,601.94,471.13ZM266.1,280.92c-.08-20.68-19.33-38.55-41.6-38.6s-40.92,19.05-41,41.77c0,23.5,17.82,41.86,40.51,41.62C246.53,325.48,266.18,304.55,266.1,280.92Zm0,458.22c.15-23.7-18.06-42.86-40.77-42.89-22.52,0-41.17,20-41.07,44.07.07,19.39,19.62,37.6,40.54,37.78C246.74,778.28,266,760.15,266.09,739.14ZM185.92,512.89c0,22.61,17.43,40.09,39.73,39.88,22-.2,40.54-19,40.43-41s-19-40.62-41-40.52C202.75,471.3,185.91,489.22,185.92,512.89Z" transform="translate(-20.21 -20.28)"/></svg>