<?xml version="1.0" encoding="utf-8"?>
<!-- Generator: Adobe Illustrator 26.0.1, SVG Export Plug-In . SVG Version: 6.00 Build 0)  -->
<svg version="1.1" id="Layer_2" xmlns="http://www.w3.org/2000/svg" xmlns:xlink="http://www.w3.org/1999/xlink" x="0px" y="0px"
	 viewBox="0 0 1024 1024" style="enable-background:new 0 0 1024 1024;" xml:space="preserve">
<style type="text/css">
	.st0{fill:none;stroke:#FFFFFF;stroke-width:64;stroke-linecap:square;stroke-linejoin:bevel;stroke-miterlimit:10;}
</style>
<g id="Ebene_2">
	<path class="st0" d="M165.3,572.1c16.1,44.2,16.2,45.6,61.4,142.2c45,95.9,130.5,196,308.5,196c181.7,0,313.9-99.2,313.9-299.5
		c0-243.3,0-210,0-238.3s-4.1-95.7-70.9-95.7s-71.7,67.4-71.7,67.4V360V238.2c0,0,1.7-80.4-69.2-80.4c-59.3,0-72.3,35.2-72.3,83.4
		s0,61.4,0,61.4V185.4c0,0-0.6-81.7-71.8-81.7c-61.3,0-73,48.3-73,85.3s0,137.7,0,137.7s0-78.1,0-100.6s-9.2-70.5-72.3-70.5
		s-72.3,46.4-72.3,89s0,200,0,200l-4.1-147.5c0,0-71.4,0.5-117.7,87C128.1,432.8,149.3,528,165.3,572.1z"/>
</g>
</svg>
