<?xml version="1.0" encoding="utf-8"?>
<!-- Generator: Adobe Illustrator 26.2.1, SVG Export Plug-In . SVG Version: 6.00 Build 0)  -->
<svg version="1.1" id="Ebene_1" xmlns="http://www.w3.org/2000/svg" xmlns:xlink="http://www.w3.org/1999/xlink" x="0px" y="0px"
	 viewBox="0 0 62 62" style="enable-background:new 0 0 62 62;" xml:space="preserve">
<style type="text/css">
	.st0{stroke:#FFFFFF;stroke-width:7.697618e-02;stroke-miterlimit:10;}
	.st1{fill:#FFFFFF;}
	.st2{fill:#FFFFFF;stroke:#FF00FF;stroke-width:4.2;stroke-miterlimit:10;}
	.st3{fill:none;stroke:#FF00FF;stroke-width:4.2;stroke-miterlimit:10;}
</style>
<path class="st1" d="M44.4,22.1c-3.7-2.6-8.3-4-13.1-4H18.1l9.3-9.2l-3-3L10.1,20.2l14.4,14.3l3-3l-9.2-9.2h13.1
	c4,0,7.7,1.1,10.7,3.2c3.8,2.7,5.7,6.2,5.7,10.6c0,4.4-1.9,7.9-5.6,10.5c-2.8,2-6.4,3.1-10.2,3.1H16.8V54h15.2
	c4.7,0,9.1-1.3,12.6-3.9c4.8-3.4,7.3-8.2,7.3-13.9C52,30.4,49.4,25.6,44.4,22.1z"/>
</svg>
