<svg id="Ebene_1" data-name="Ebene 1" xmlns="http://www.w3.org/2000/svg" viewBox="0 0 62 62">
  <defs>
    <style>
      .cls-1 {
        fill: #fff;
      }
    </style>
  </defs>
  <g>
    <path class="cls-1" d="M31,6.68A18.46,18.46,0,0,0,12.56,25.12c0,9.57,15.17,26.59,16.9,28.5L31,55.32l1.54-1.7c1.73-1.91,16.9-18.93,16.9-28.5A18.46,18.46,0,0,0,31,6.68Zm0,42.4c-1.54-1.8-4-4.82-6.51-8.23-5-6.93-7.79-12.52-7.79-15.73a14.29,14.29,0,1,1,28.58,0C45.29,31.19,36.07,43.18,31,49.08Z"/>
    <path class="cls-1" d="M31,16.83A7.2,7.2,0,1,0,38.2,24,7.21,7.21,0,0,0,31,16.83Zm0,10.25a3,3,0,1,1,3-3A3.06,3.06,0,0,1,31,27.08Z"/>
  </g>
</svg>
