<svg id="Ebene_1" data-name="Ebene 1" xmlns="http://www.w3.org/2000/svg" viewBox="0 0 32.64 35.61"><defs><style>.cls-1{fill:#fff;}</style></defs><rect class="cls-1" x="10.3" y="22.31" width="27.64" height="4.31" transform="translate(-15.29 31.44) rotate(-67.95)"/><circle class="cls-1" cx="27.72" cy="21.74" r="2.16"/><path class="cls-1" d="M39.15,31l-3.88,1.91h0c1.08,3,.71,4.19.49,4.38s-2,.31-5-1.42a43,43,0,0,1-10.28-8.78A42.72,42.72,0,0,1,13,15.82c-1.34-3.24-1.11-4.87-.79-5.15.48-.42,3.57-.16,9,4.12l1.68-4.14A27.05,27.05,0,0,0,16.63,7c-2.15-.83-5.15-1.43-7.25.42-1.49,1.32-2.77,4.13-.34,10A47.35,47.35,0,0,0,17.24,30a47.17,47.17,0,0,0,11.39,9.68,13.58,13.58,0,0,0,6.5,2.13,5,5,0,0,0,3.49-1.23c1.39-1.22,2.64-3.8.71-9.09Z" transform="translate(-7.68 -6.2)"/><circle class="cls-1" cx="24.01" cy="16.2" r="2.16"/></svg>