<?xml version="1.0" encoding="utf-8"?>
<!-- Generator: Adobe Illustrator 26.0.1, SVG Export Plug-In . SVG Version: 6.00 Build 0)  -->
<svg version="1.1" id="Layer_2" xmlns="http://www.w3.org/2000/svg" xmlns:xlink="http://www.w3.org/1999/xlink" x="0px" y="0px"
	 viewBox="0 0 1024 1024" style="enable-background:new 0 0 1024 1024;" xml:space="preserve">
<style type="text/css">
	.st0{fill:none;stroke:#FFFFFF;stroke-width:64;stroke-linecap:square;stroke-linejoin:bevel;stroke-miterlimit:10;}
</style>
<path class="st0" d="M162.9,555c14.9,41.1,53.1,145.8,93.1,238.7C295,884.6,377.4,976,543,976c169.1,0,292.1-92.3,292.1-278.7
	s0-337.9,0-364.3s-3.8-89-66-89s-66.7,65.8-66.7,86.9c0,21,0,133,0,133V172.3c0,0,1.6-74.8-64.4-74.8c-55.2,0-67.3,32.7-67.3,77.6
	s0,235.7,0,235.7V123.4c0,0-0.6-76-66.8-76c-57,0-67.9,44.9-67.9,79.4s0,306.7,0,306.7s0-251.3,0-272.1s-8.6-65.6-67.3-65.6
	s-67.3,43.1-67.3,82.8s0,364.7,0,364.7s-24-57.6-32.4-78.4c-8.5-20.7-36.1-54.3-87.8-36.1C133.1,445.9,147.9,513.9,162.9,555z"/>
</svg>
