<svg id="Ebene_1" data-name="Ebene 1" xmlns="http://www.w3.org/2000/svg" viewBox="0 0 62 62">
  <defs>
    <style>
      .cls-1 {
        fill: #fff;
      }
    </style>
  </defs>
  <path class="cls-1" d="M54.78,26.09a18.44,18.44,0,0,0-35.25-7.57,18.44,18.44,0,1,0,22.95,25A18.48,18.48,0,0,0,54.78,26.09ZM50,22l-7.19,7.19a18.82,18.82,0,0,0-2.18-4L48,17.85A14.29,14.29,0,0,1,50,22Zm-9.2-9.49a14.22,14.22,0,0,1,4.37,2.36l-7.27,7.27a18.09,18.09,0,0,0-4-2.73Zm-5-.72-6.1,6.1a19,19,0,0,0-4-.44l-.72,0A14.25,14.25,0,0,1,35.78,11.81ZM25.66,50.2A14.29,14.29,0,1,1,40,35.91,14.31,14.31,0,0,1,25.66,50.2Zm18.3-12a18.78,18.78,0,0,0,.15-2.26A17.87,17.87,0,0,0,44,33.83l6.6-6.6A14.33,14.33,0,0,1,44,38.17Z"/>
</svg>
