<svg id="Ebene_1" data-name="Ebene 1" xmlns="http://www.w3.org/2000/svg" viewBox="0 0 40.62 25.41"><defs><style>.cls-1{fill:#fff;}</style></defs><rect class="cls-1" x="18.33" width="3.96" height="25.41"/><rect class="cls-1" x="18.33" width="3.96" height="25.41"/><path class="cls-1" d="M42.14,20a15,15,0,0,0-4.54-2.35A36.92,36.92,0,0,0,29.82,16v4a31.32,31.32,0,0,1,6.49,1.41c3,1.05,4,2.2,4,2.59s-1,1.54-4,2.59A39.5,39.5,0,0,1,24,28.33a39.5,39.5,0,0,1-12.31-1.74c-3-1.05-4-2.2-4-2.59s1-1.54,4-2.59A31.53,31.53,0,0,1,18.06,20V16a35.8,35.8,0,0,0-7.66,1.63C4.86,19.57,3.69,22.16,3.69,24a5.28,5.28,0,0,0,2.17,4,15,15,0,0,0,4.54,2.35,43.27,43.27,0,0,0,13.6,2,43.27,43.27,0,0,0,13.6-2c5.54-1.91,6.71-4.5,6.71-6.34A5.26,5.26,0,0,0,42.14,20Z" transform="translate(-3.69 -11.29)"/></svg>